# xmcd
#
# Track frame offsets: 
#        150
#        13939
#        27545
#        40458
#        49999
#        64124
#        77814
#        91794
#        111240
#        125965
#        138533
#        152919
#        165236
#        179483
#        192717
#        206256
#        220577
#        233915
#        247522
#        261193
#
# Disc length: 3661 seconds
#
# Revision: 2
# Processed by: cddbd v1.5.2PL0 Copyright (c) Steve Scherf et al.
# Submitted via: ExactAudioCopyFreeDBPlugin 1.0
#
DISCID=200e4b14
DTITLE=Leadbelly - ABC Of The Blues - Vol. 24 Leadbelly
DYEAR=2010
DGENRE=Blues
TTITLE0=Alabama Bound
TTITLE1=Fort Worth And Dallas Blues
TTITLE2=Leavin' Blues
TTITLE3=Midnight Special
TTITLE4=T.B. Woman Blues
TTITLE5=New York City
TTITLE6=Shorty George
TTITLE7=John Hardy
TTITLE8=Bourgeois Blues
TTITLE9=Good Morning Blues
TTITLE10=Easy Rider
TTITLE11=Pretty Flower In Your Backyard
TTITLE12=Black Snake Moan
TTITLE13=See See Rider
TTITLE14=Roberta Pt. 1
TTITLE15=Pigmeat
TTITLE16=Grey Goose
TTITLE17=Pick A Bale Of Cotton
TTITLE18=Where Did You Sleep Last Night?
TTITLE19=Death Letter Blues Pt. 1
EXTD=
EXTT0=
EXTT1=
EXTT2=
EXTT3=
EXTT4=
EXTT5=
EXTT6=
EXTT7=
EXTT8=
EXTT9=
EXTT10=
EXTT11=
EXTT12=
EXTT13=
EXTT14=
EXTT15=
EXTT16=
EXTT17=
EXTT18=
EXTT19=
PLAYORDER=
